HIERARCHY
ROOT Hips
{
  OFFSET -125.086 92.215 135.881
  CHANNELS 6 Xposition Yposition Zposition Zrotation Xrotation Yrotation
  JOINT LeftUpLeg
  {
    OFFSET 8.64259 1.95398 -2.38835
    CHANNELS 3 Zrotation Xrotation Yrotation
    JOINT LeftLeg
    {
      OFFSET 43.7702 0 0
      CHANNELS 3 Zrotation Xrotation Yrotation
      JOINT LeftFoot
      {
        OFFSET 40.6238 0 0
        CHANNELS 3 Zrotation Xrotation Yrotation
        JOINT LeftToeBase
        {
          OFFSET 12.7242 0 0
          CHANNELS 3 Zrotation Xrotation Yrotation
          End Site
          {
            OFFSET 0 0 0
          }
        }
      }
    }
  }
  JOINT RightUpLeg
  {
    OFFSET -8.2249 1.95398 -2.59336
    CHANNELS 3 Zrotation Xrotation Yrotation
    JOINT RightLeg
    {
      OFFSET 43.5653 0 0
      CHANNELS 3 Zrotation Xrotation Yrotation
      JOINT RightFoot
      {
        OFFSET 40.6238 0 0
        CHANNELS 3 Zrotation Xrotation Yrotation
        JOINT RightToeBase
        {
          OFFSET 12.7242 0 0
          CHANNELS 3 Zrotation Xrotation Yrotation
          End Site
          {
            OFFSET 0 0 0
          }
        }
      }
    }
  }
  JOINT Spine
  {
    OFFSET 0.165834 0.87714 6.61349
    CHANNELS 3 Zrotation Xrotation Yrotation
    JOINT Spine1
    {
      OFFSET 7.38963 1.71661e-005 0
      CHANNELS 3 Zrotation Xrotation Yrotation
      JOINT Spine2
      {
        OFFSET 11.9445 1.14441e-005 0
        CHANNELS 3 Zrotation Xrotation Yrotation
        JOINT Spine3
        {
          OFFSET 14.7254 4.19617e-005 0
          CHANNELS 3 Zrotation Xrotation Yrotation
          JOINT Spine4
          {
            OFFSET 10.9679 0 0
            CHANNELS 3 Zrotation Xrotation Yrotation
            JOINT RightShoulder
            {
              OFFSET 2.46616 -1.6653 3.69651
              CHANNELS 3 Zrotation Xrotation Yrotation
              JOINT RightArm
              {
                OFFSET 13.0012 0 0
                CHANNELS 3 Zrotation Xrotation Yrotation
                JOINT RightForeArm
                {
                  OFFSET 28.7848 1.52588e-005 0
                  CHANNELS 3 Zrotation Xrotation Yrotation
                  JOINT RightHand
                  {
                    OFFSET 26.5688 1.52588e-005 0
                    CHANNELS 3 Zrotation Xrotation Yrotation
                    End Site
                    {
                      OFFSET 0 0 0
                    }
                  }
                }
              }
            }
            JOINT LeftShoulder
            {
              OFFSET 2.38034 -1.29275 -3.7523
              CHANNELS 3 Zrotation Xrotation Yrotation
              JOINT LeftArm
              {
                OFFSET 16.3182 6.10352e-005 0
                CHANNELS 3 Zrotation Xrotation Yrotation
                JOINT LeftForeArm
                {
                  OFFSET 27.0901 0 0
                  CHANNELS 3 Zrotation Xrotation Yrotation
                  JOINT LeftHand
                  {
                    OFFSET 24.5451 1.52588e-005 0
                    CHANNELS 3 Zrotation Xrotation Yrotation
                    End Site
                    {
                      OFFSET 0 0 0
                    }
                  }
                }
              }
            }
            JOINT Neck
            {
              OFFSET 5.0226 -0.0266342 0
              CHANNELS 3 Zrotation Xrotation Yrotation
              JOINT Head
              {
                OFFSET 6.69363 2.86102e-005 0
                CHANNELS 3 Zrotation Xrotation Yrotation
                End Site
                {
                  OFFSET 0 0 0
                }
              }
            }
          }
        }
      }
    }
  }
}
MOTION
Frames:	7
Frame Time:	0.0416667
85.1079 96.8717 -108.024 -103.178 -47.2031 -99.1311 179.658 11.9722 87.3261 -12.2776 9.66221 1.46644 49.7224 1.57869 6.30047 48.1163 -1.07071 10.6753 175.29 -0.689644 89.838 -31.6873 -7.09862 -1.19688 70.024 -1.89318 14.3528 36.8363 -1.25819 0.114263 0.643609 7.77968 -90.6303 11.319 0.987125 -1.35347 -0.352309 0.926614 -1.39561 -22.887 1.34824 -0.994248 -2.87441 1.34825 -0.994258 110.462 -53.5593 -69.8014 20.6645 -4.65757 -20.5747 -3.29641 -30.5287 -23.0792 -8.6283 -0.374376 -0.138222 -75.8235 -49.5276 99.9602 -40.2087 -16.6678 -11.2014 7.16859 63.9238 0.0626552 -4.62475 0.0317731 -10.5863 3.84678 0.530199 -3.54324 -21.7316 0.129515 6.36207 
78.8139 95.8678 -102.06 -101.783 -45.4627 -97.0003 -179.408 16.2724 87.8282 -6.87354 12.4029 2.66474 56.4103 0.938889 0.986534 42.8715 -1.14402 8.31878 175.46 -5.1818 90.7243 -32.2083 -7.62795 -1.80271 70.6696 -2.17725 16.3004 43.3042 -2.27623 -0.503115 0.831856 7.7072 -90.5907 11.4668 1.37904 -1.31673 -0.204167 1.31977 -1.37615 -22.7427 1.711 -0.841373 -2.73002 1.71101 -0.841362 110.187 -54.0882 -70.286 19.4981 -5.24301 -25.2018 -5.25673 -32.5872 -25.8652 -7.45033 -0.341758 0.179508 -75.4552 -49.3795 100.529 -40.2469 -17.0767 -10.9881 7.55096 64.2347 0.0612076 -6.21161 0.150522 -11.581 3.59028 0.571327 -5.32104 -21.439 0.197447 8.19494 
71.9447 94.6339 -94.8912 -101.247 -45.4586 -97.1906 -179.984 16.6427 86.7497 -10.8381 14.3978 2.27501 50.6636 -1.24961 4.59938 44.7038 -1.14317 10.151 175.199 -9.19865 89.3994 -34.4899 -9.31018 -2.86066 66.1049 -0.57043 19.3828 56.0578 -4.02781 1.23813 0.897792 7.60908 -90.3205 11.6625 1.63553 -0.810702 -0.00769768 1.59826 -0.881916 -22.5506 1.80355 -0.281549 -2.53795 1.80356 -0.281545 111.084 -54.7813 -69.0721 20.5708 -5.35122 -23.2018 -6.70146 -30.5326 -28.6623 -8.14358 -0.419601 0.883588 -75.1644 -49.8931 100.951 -40.9154 -18.5781 -14.9202 10.2158 69.4862 0.0702337 -6.03482 0.133492 -11.4443 4.54284 0.152618 -6.20958 -21.4135 0.0568873 7.76331 
64.8385 93.4174 -87.3137 -101.377 -45.3682 -99.0013 179.31 19.0515 84.0289 -27.1263 16.3086 3.06563 52.5911 -1.04863 11.2339 41.9753 -1.0361 0.290522 173.002 -8.30183 85.4371 -42.4983 -9.12832 -2.91571 47.7154 4.234 26.592 59.7314 -1.97107 16.5282 0.830659 7.49277 -89.8819 11.8905 1.70725 0.0515442 0.220746 1.70788 -0.0236706 -22.3228 1.61279 0.562396 -2.31017 1.61283 0.562403 111.486 -54.7796 -68.4843 22.8204 -6.39966 -16.901 -6.85042 -31.0219 -28.7134 -7.97843 -0.381356 0.363373 -75.3845 -49.9538 100.613 -41.2893 -18.595 -18.0548 11.3803 69.7197 0.0630613 -3.98901 -0.0081526 -9.67335 6.00719 -0.0153032 -5.85684 -22.0171 0.0968858 6.29906 
58.2519 93.4983 -80.4676 -103.017 -44.5942 -101.295 -179.632 14.5565 82.2176 -34.0876 16.3319 2.94386 59.8692 3.56344 15.6646 39.3198 -0.827402 -3.10908 174.418 2.74838 84.2342 -62.1612 -14.4924 -3.8315 40.5992 6.36116 18.507 61.2141 -3.77255 6.76983 0.535662 7.66064 -89.6099 11.5491 1.24823 0.64903 -0.121435 1.2756 0.593443 -22.6586 0.995485 0.99418 -2.64598 0.99547 0.994168 111.134 -54.6827 -68.9835 26.4868 -4.19445 -13.3781 -7.07493 -36.3851 -24.9474 -5.69831 -0.344125 2.03936 -75.6941 -49.4783 100.16 -42.5639 -15.6494 -23.1593 11.2226 68.0275 0.0498218 -2.43131 -0.0866341 -11.9691 7.44099 0.713822 -5.34852 -23.0409 0.484561 7.7171 
51.9098 94.6236 -73.7542 -104.161 -46.6566 -99.9798 -178.721 7.72357 84.1431 -34.8063 18.4464 4.62131 64.0808 6.33891 15.9056 41.368 -1.06449 -1.83243 174.171 12.9352 87.1326 -66.5245 -10.9174 -2.32954 45.1683 4.53872 17.679 49.882 -2.74781 5.46411 0.0675483 7.64364 -89.906 11.5864 0.178555 0.170631 -0.0845993 0.185897 0.162595 -22.6196 0.119017 0.216403 -2.60694 0.119031 0.216405 111.714 -54.7964 -68.1545 27.8443 -0.587769 -9.80573 -5.72623 -40.4464 -19.1985 -5.08236 -0.260959 0.817475 -75.9057 -48.8143 99.8584 -44.0447 -11.3776 -28.8945 10.017 66.5131 0.0378443 -0.921493 -0.172553 -10.9375 4.40078 1.70568 -5.34532 -22.8068 1.02118 9.59274 
45.6413 95.7569 -67.6506 -103.377 -50.5813 -98.3315 -176.904 0.805988 86.732 -31.9194 22.2923 5.08237 66.126 7.83973 13.624 41.8378 -1.11727 0.00931458 172.858 19.8456 89.0903 -55.0265 -6.92308 0.211108 53.0553 1.84406 17.7038 44.8642 -2.55517 -0.247479 -0.34755 7.48201 -90.1295 11.9095 -0.75211 -0.17816 0.238777 -0.75923 -0.144899 -22.2978 -0.663799 -0.395978 -2.2852 -0.663787 -0.395981 112.334 -55.2188 -67.3247 27.082 1.46694 -4.08582 -2.94684 -38.034 -15.4899 -7.12638 -0.457936 2.49635 -76.3449 -47.397 99.2177 -43.5064 -5.23971 -33.3971 5.05124 60.9544 0.742604 0.226643 -0.231688 -10.5783 2.54939 1.92816 -7.08662 -23.7328 1.17812 10.6679 
